ffmpeg started on 2016-12-06 at 19:26:18
Report written to "Output/x264/results/ffmpeg/crowd_run_2160p50medium4500k.log"
Command line:
Tools/ffmpeg/ffmpeg -benchmark -y -i Input/y4m/crowd_run_2160p50.y4m -c:v libx264 -preset medium -b:v 4500k -an Output/x264/encoded/crowd_run_2160p50medium4500k.mkv
ffmpeg version N-82227-gdb23fde Copyright (c) 2000-2016 the FFmpeg developers
  built with gcc 5.4.0 (Ubuntu 5.4.0-6ubuntu1~16.04.2) 20160609
  configuration: --prefix=/home/jaroslav/ffmpeg_build --pkg-config-flags=--static --extra-cflags=-I/home/jaroslav/ffmpeg_build/include --extra-ldflags=-L/home/jaroslav/ffmpeg_build/lib --bindir=/home/jaroslav/bin --enable-gpl --enable-libass --enable-libfdk-aac --enable-libfreetype --enable-libmp3lame --enable-libopus --enable-libtheora --enable-libvorbis --enable-libvpx --enable-libx264 --enable-libx265 --enable-nvenc --enable-libmfx --enable-libxvid --enable-libgsm --enable-libopencore-amrnb --enable-version3 --enable-nonfree
  libavutil      55. 35.100 / 55. 35.100
  libavcodec     57. 66.101 / 57. 66.101
  libavformat    57. 57.100 / 57. 57.100
  libavdevice    57.  2.100 / 57.  2.100
  libavfilter     6. 66.100 /  6. 66.100
  libswscale      4.  3.100 /  4.  3.100
  libswresample   2.  4.100 /  2.  4.100
  libpostproc    54.  2.100 / 54.  2.100
Input #0, yuv4mpegpipe, from 'Input/y4m/crowd_run_2160p50.y4m':
  Duration: 00:00:10.00, start: 0.000000, bitrate: 4976642 kb/s
    Stream #0:0: Video: rawvideo (I420 / 0x30323449), yuv420p(progressive), 3840x2160, SAR 1:1 DAR 16:9, 50 fps, 50 tbr, 50 tbn, 50 tbc
[libx264 @ 0x30b41c0] using SAR=1/1
[libx264 @ 0x30b41c0] using cpu capabilities: MMX2 SSE2Fast SSSE3 SSE4.2 AVX FMA3 AVX2 LZCNT BMI2
[libx264 @ 0x30b41c0] profile High, level 5.2
[libx264 @ 0x30b41c0] 264 - core 148 - H.264/MPEG-4 AVC codec - Copyleft 2003-2016 - http://www.videolan.org/x264.html - options: cabac=1 ref=3 deblock=1:0:0 analyse=0x3:0x113 me=hex subme=7 psy=1 psy_rd=1.00:0.00 mixed_ref=1 me_range=16 chroma_me=1 trellis=1 8x8dct=1 cqm=0 deadzone=21,11 fast_pskip=1 chroma_qp_offset=-2 threads=6 lookahead_threads=1 sliced_threads=0 nr=0 decimate=1 interlaced=0 bluray_compat=0 constrained_intra=0 bframes=3 b_pyramid=2 b_adapt=1 b_bias=0 direct=1 weightb=1 open_gop=0 weightp=2 keyint=250 keyint_min=25 scenecut=40 intra_refresh=0 rc_lookahead=40 rc=abr mbtree=1 bitrate=4500 ratetol=1.0 qcomp=0.60 qpmin=0 qpmax=69 qpstep=4 ip_ratio=1.40 aq=1:1.00
Output #0, matroska, to 'Output/x264/encoded/crowd_run_2160p50medium4500k.mkv':
  Metadata:
    encoder         : Lavf57.57.100
    Stream #0:0: Video: h264 (libx264) (H264 / 0x34363248), yuv420p, 3840x2160 [SAR 1:1 DAR 16:9], q=-1--1, 4500 kb/s, 50 fps, 1k tbn, 50 tbc
    Metadata:
      encoder         : Lavc57.66.101 libx264
    Side data:
      cpb: bitrate max/min/avg: 0/0/4500000 buffer size: 0 vbv_delay: -1
Stream mapping:
  Stream #0:0 -> #0:0 (rawvideo (native) -> h264 (libx264))
Press [q] to stop, [?] for help
frame=   19 fps=0.0 q=0.0 size=       0kB time=00:00:00.00 bitrate=N/A speed=   0x    frame=   33 fps= 32 q=0.0 size=       0kB time=00:00:00.00 bitrate=N/A speed=   0x    frame=   41 fps= 24 q=0.0 size=       0kB time=00:00:00.00 bitrate=N/A speed=   0x    frame=   47 fps= 12 q=0.0 size=       0kB time=00:00:00.00 bitrate=N/A speed=   0x    frame=   53 fps= 12 q=41.0 size=       1kB time=00:00:00.00 bitrate=5872.0kbits/s speed=0.000218x    frame=   57 fps= 11 q=44.0 size=       1kB time=00:00:00.08 bitrate=  72.5kbits/s speed=0.0159x    frame=   64 fps= 11 q=57.0 size=       1kB time=00:00:00.22 bitrate=  26.6kbits/s speed=0.0385x    frame=   71 fps= 11 q=56.0 size=       1kB time=00:00:00.36 bitrate=  16.3kbits/s speed=0.0576x    frame=   78 fps= 11 q=56.0 size=       1kB time=00:00:00.50 bitrate=  11.7kbits/s speed=0.0735x    frame=   87 fps= 12 q=56.0 size=       1kB time=00:00:00.68 bitrate=   8.6kbits/s speed=0.0927x    frame=   94 fps= 12 q=56.0 size=       1kB time=00:00:00.82 bitrate=   7.2kbits/s speed=0.103x    frame=  101 fps= 12 q=55.0 size=       1kB time=00:00:00.96 bitrate=   6.1kbits/s speed=0.114x    frame=  106 fps= 12 q=55.0 size=       1kB time=00:00:01.06 bitrate=   5.5kbits/s speed=0.118x    frame=  114 fps= 12 q=55.0 size=       1kB time=00:00:01.22 bitrate=   4.8kbits/s speed=0.127x    frame=  122 fps= 12 q=54.0 size=       1kB time=00:00:01.38 bitrate=   4.3kbits/s speed=0.135x    frame=  129 fps= 12 q=54.0 size=       1kB time=00:00:01.52 bitrate=   3.9kbits/s speed=0.141x    frame=  138 fps= 12 q=54.0 size=       1kB time=00:00:01.70 bitrate=   3.5kbits/s speed=0.151x    frame=  145 fps= 12 q=54.0 size=       1kB time=00:00:01.84 bitrate=   3.2kbits/s speed=0.156x    frame=  152 fps= 12 q=54.0 size=       1kB time=00:00:01.98 bitrate=   3.0kbits/s speed=0.16x    frame=  158 fps= 12 q=54.0 size=       1kB time=00:00:02.10 bitrate=   2.8kbits/s speed=0.163x    frame=  166 fps= 12 q=54.0 size=       1kB time=00:00:02.26 bitrate=   2.6kbits/s speed=0.168x    frame=  173 fps= 12 q=54.0 size=       1kB time=00:00:02.40 bitrate=   2.4kbits/s speed=0.171x    frame=  181 fps= 12 q=53.0 size=       1kB time=00:00:02.56 bitrate=   2.3kbits/s speed=0.176x    frame=  188 fps= 12 q=53.0 size=       1kB time=00:00:02.70 bitrate=   2.2kbits/s speed=0.179x    frame=  194 fps= 12 q=53.0 size=       1kB time=00:00:02.82 bitrate=   2.1kbits/s speed=0.18x    frame=  202 fps= 12 q=53.0 size=       1kB time=00:00:02.98 bitrate=   2.0kbits/s speed=0.183x    frame=  208 fps= 12 q=53.0 size=       1kB time=00:00:03.10 bitrate=   1.9kbits/s speed=0.184x    frame=  215 fps= 12 q=53.0 size=       1kB time=00:00:03.24 bitrate=   1.8kbits/s speed=0.186x    frame=  222 fps= 12 q=53.0 size=       1kB time=00:00:03.38 bitrate=   1.7kbits/s speed=0.189x    frame=  229 fps= 12 q=53.0 size=       1kB time=00:00:03.52 bitrate=   1.7kbits/s speed=0.191x    frame=  237 fps= 12 q=53.0 size=       1kB time=00:00:03.68 bitrate=   1.6kbits/s speed=0.193x    frame=  246 fps= 12 q=53.0 size=       1kB time=00:00:03.86 bitrate=   1.5kbits/s speed=0.195x    frame=  253 fps= 12 q=53.0 size=       1kB time=00:00:04.00 bitrate=   1.5kbits/s speed=0.197x    frame=  259 fps= 12 q=53.0 size=       1kB time=00:00:04.12 bitrate=   1.4kbits/s speed=0.198x    frame=  266 fps= 12 q=53.0 size=       1kB time=00:00:04.26 bitrate=   1.4kbits/s speed=0.199x    frame=  274 fps= 12 q=53.0 size=       1kB time=00:00:04.42 bitrate=   1.3kbits/s speed= 0.2x    frame=  281 fps= 12 q=53.0 size=       1kB time=00:00:04.56 bitrate=   1.3kbits/s speed=0.202x    frame=  286 fps= 12 q=53.0 size=       1kB time=00:00:04.66 bitrate=   1.3kbits/s speed=0.201x    frame=  293 fps= 12 q=53.0 size=       1kB time=00:00:04.80 bitrate=   1.2kbits/s speed=0.203x    frame=  296 fps= 12 q=50.0 size=       1kB time=00:00:04.86 bitrate=   1.2kbits/s speed=0.195x    frame=  306 fps= 12 q=54.0 size=    2873kB time=00:00:05.06 bitrate=4651.1kbits/s speed=0.199x    frame=  313 fps= 12 q=54.0 size=    2873kB time=00:00:05.20 bitrate=4525.9kbits/s speed= 0.2x    frame=  319 fps= 12 q=54.0 size=    2873kB time=00:00:05.32 bitrate=4423.8kbits/s speed= 0.2x    frame=  327 fps= 12 q=54.0 size=    2873kB time=00:00:05.48 bitrate=4294.7kbits/s speed=0.201x    frame=  334 fps= 12 q=54.0 size=    2873kB time=00:00:05.62 bitrate=4187.7kbits/s speed=0.202x    frame=  340 fps= 12 q=54.0 size=    2873kB time=00:00:05.74 bitrate=4100.2kbits/s speed=0.202x    frame=  348 fps= 12 q=54.0 size=    2873kB time=00:00:05.90 bitrate=3989.0kbits/s speed=0.204x    frame=  352 fps= 12 q=53.0 size=    2873kB time=00:00:05.98 bitrate=3935.7kbits/s speed=0.202x    frame=  358 fps= 12 q=53.0 size=    2873kB time=00:00:06.10 bitrate=3858.3kbits/s speed=0.203x    frame=  364 fps= 12 q=53.0 size=    2873kB time=00:00:06.22 bitrate=3783.8kbits/s speed=0.203x    frame=  372 fps= 12 q=54.0 size=    2873kB time=00:00:06.38 bitrate=3689.0kbits/s speed=0.204x    frame=  380 fps= 12 q=54.0 size=    2873kB time=00:00:06.54 bitrate=3598.7kbits/s speed=0.204x    frame=  388 fps= 12 q=54.0 size=    2873kB time=00:00:06.70 bitrate=3512.8kbits/s speed=0.205x    frame=  396 fps= 12 q=54.0 size=    2873kB time=00:00:06.86 bitrate=3430.9kbits/s speed=0.206x    frame=  404 fps= 12 q=54.0 size=    2873kB time=00:00:07.02 bitrate=3352.7kbits/s speed=0.208x    frame=  409 fps= 12 q=54.0 size=    2873kB time=00:00:07.12 bitrate=3305.6kbits/s speed=0.208x    frame=  415 fps= 12 q=54.0 size=    2873kB time=00:00:07.24 bitrate=3250.8kbits/s speed=0.208x    frame=  423 fps= 12 q=54.0 size=    2873kB time=00:00:07.40 bitrate=3180.5kbits/s speed=0.21x    frame=  428 fps= 12 q=54.0 size=    2873kB time=00:00:07.50 bitrate=3138.1kbits/s speed=0.209x    frame=  436 fps= 12 q=54.0 size=    2873kB time=00:00:07.66 bitrate=3072.6kbits/s speed=0.21x    frame=  442 fps= 12 q=54.0 size=    2873kB time=00:00:07.78 bitrate=3025.2kbits/s speed=0.209x    frame=  448 fps= 12 q=54.0 size=    2873kB time=00:00:07.90 bitrate=2979.3kbits/s speed=0.21x    frame=  453 fps= 12 q=54.0 size=    2873kB time=00:00:08.00 bitrate=2942.0kbits/s speed=0.209x    frame=  460 fps= 12 q=54.0 size=    2873kB time=00:00:08.14 bitrate=2891.4kbits/s speed=0.209x    frame=  468 fps= 12 q=54.0 size=    2873kB time=00:00:08.30 bitrate=2835.7kbits/s speed=0.21x    frame=  476 fps= 12 q=54.0 size=    2873kB time=00:00:08.46 bitrate=2782.1kbits/s speed=0.21x    frame=  483 fps= 12 q=54.0 size=    2873kB time=00:00:08.60 bitrate=2736.8kbits/s speed=0.211x    frame=  491 fps= 12 q=54.0 size=    2873kB time=00:00:08.76 bitrate=2686.8kbits/s speed=0.212x    frame=  497 fps= 12 q=54.0 size=    2873kB time=00:00:08.88 bitrate=2650.5kbits/s speed=0.212x    frame=  500 fps= 11 q=-1.0 Lsize=    5683kB time=00:00:09.94 bitrate=4683.3kbits/s speed=0.22x    
video:5679kB audio:0kB subtitle:0kB other streams:0kB global headers:0kB muxing overhead: 0.076576%
bench: utime=151.836s
bench: maxrss=1852924kB
[libx264 @ 0x30b41c0] frame I:2     Avg QP:42.46  size:151783
[libx264 @ 0x30b41c0] frame P:126   Avg QP:50.69  size: 22006
[libx264 @ 0x30b41c0] frame B:372   Avg QP:50.83  size:  7360
[libx264 @ 0x30b41c0] consecutive B-frames:  0.8%  0.0%  0.0% 99.2%
[libx264 @ 0x30b41c0] mb I  I16..4: 27.7% 66.4%  6.0%
[libx264 @ 0x30b41c0] mb P  I16..4:  5.7%  2.4%  0.0%  P16..4: 20.8%  1.4%  1.4%  0.0%  0.0%    skip:68.3%
[libx264 @ 0x30b41c0] mb B  I16..4:  0.0%  0.0%  0.0%  B16..8: 19.3%  0.2%  0.0%  direct: 0.2%  skip:80.2%  L0:39.6% L1:60.4% BI: 0.1%
[libx264 @ 0x30b41c0] final ratefactor: 45.50
[libx264 @ 0x30b41c0] 8x8 transform intra:35.9% inter:98.1%
[libx264 @ 0x30b41c0] coded y,uvDC,uvAC intra: 9.7% 44.5% 4.5% inter: 1.1% 3.3% 0.0%
[libx264 @ 0x30b41c0] i16 v,h,dc,p: 52% 25% 11% 12%
[libx264 @ 0x30b41c0] i8 v,h,dc,ddl,ddr,vr,hd,vl,hu: 16%  9% 47%  5%  5%  5%  5%  5%  3%
[libx264 @ 0x30b41c0] i4 v,h,dc,ddl,ddr,vr,hd,vl,hu: 24% 18% 13% 10%  8%  8%  7%  7%  5%
[libx264 @ 0x30b41c0] i8c dc,h,v,p: 91%  3%  5%  0%
[libx264 @ 0x30b41c0] Weighted P-Frames: Y:1.6% UV:0.8%
[libx264 @ 0x30b41c0] ref P L0: 69.0%  1.3% 21.2%  8.4%  0.1%
[libx264 @ 0x30b41c0] ref B L0: 94.3%  4.0%  1.6%
[libx264 @ 0x30b41c0] ref B L1: 98.4%  1.6%
[libx264 @ 0x30b41c0] kb/s:4651.55
